<svg width="130" height="18" viewBox="0 0 130 18" fill="none" xmlns="http://www.w3.org/2000/svg">
<path d="M7.55868 4.67401C7.50755 4.15838 7.28809 3.75781 6.9003 3.4723C6.51252 3.18679 5.98624 3.04403 5.32147 3.04403C4.86976 3.04403 4.48837 3.10795 4.17729 3.2358C3.86621 3.35937 3.62757 3.53196 3.46138 3.75355C3.29945 3.97514 3.21848 4.22656 3.21848 4.50781C3.20996 4.74219 3.25897 4.94673 3.3655 5.12145C3.4763 5.29616 3.62757 5.44744 3.81934 5.57528C4.0111 5.69886 4.23269 5.80753 4.48411 5.90128C4.73553 5.99077 5.004 6.06747 5.28951 6.13139L6.46564 6.41264C7.03667 6.54048 7.56081 6.71094 8.03809 6.92401C8.51536 7.13707 8.92871 7.39915 9.27814 7.71023C9.62757 8.02131 9.89817 8.38778 10.0899 8.80966C10.286 9.23153 10.3861 9.7152 10.3904 10.2607C10.3861 11.0618 10.1816 11.7564 9.77672 12.3445C9.37615 12.9283 8.79661 13.3821 8.03809 13.706C7.28382 14.0256 6.37402 14.1854 5.30868 14.1854C4.25186 14.1854 3.33141 14.0234 2.54732 13.6996C1.76749 13.3757 1.15811 12.8963 0.719194 12.2614C0.284535 11.6222 0.0565519 10.8317 0.035245 9.88991H2.71351C2.74334 10.3288 2.86905 10.6953 3.09064 10.9893C3.3165 11.2791 3.61692 11.4986 3.99192 11.6477C4.37118 11.7926 4.79945 11.8651 5.27672 11.8651C5.74547 11.8651 6.15243 11.7969 6.4976 11.6605C6.84703 11.5241 7.11763 11.3345 7.30939 11.0916C7.50115 10.8487 7.59704 10.5696 7.59704 10.2543C7.59704 9.96023 7.50968 9.71307 7.33496 9.51278C7.16451 9.3125 6.91309 9.14205 6.5807 9.00142C6.25257 8.8608 5.84988 8.73295 5.3726 8.6179L3.94718 8.25994C2.84348 7.99148 1.97203 7.57173 1.33283 7.00071C0.693626 6.42969 0.376154 5.66051 0.380416 4.69318C0.376154 3.90057 0.587092 3.2081 1.01323 2.61577C1.44363 2.02344 2.03382 1.56108 2.78382 1.22869C3.53382 0.896306 4.3861 0.730113 5.34064 0.730113C6.31223 0.730113 7.16025 0.896306 7.88468 1.22869C8.61337 1.56108 9.18013 2.02344 9.58496 2.61577C9.98979 3.2081 10.1986 3.89418 10.2114 4.67401H7.55868ZM17.4232 4.18182V6.22727H11.5106V4.18182H17.4232ZM12.8529 1.82955H15.5759V10.983C15.5759 11.2344 15.6143 11.4304 15.691 11.571C15.7677 11.7074 15.8742 11.8033 16.0106 11.8587C16.1512 11.9141 16.3131 11.9418 16.4964 11.9418C16.6242 11.9418 16.752 11.9311 16.8799 11.9098C17.0077 11.8842 17.1057 11.8651 17.1739 11.8523L17.6022 13.8786C17.4658 13.9212 17.2741 13.9702 17.0269 14.0256C16.7797 14.0852 16.4793 14.1214 16.1256 14.1342C15.4694 14.1598 14.8941 14.0724 14.3998 13.8722C13.9097 13.6719 13.5283 13.3608 13.2556 12.9389C12.9829 12.517 12.8486 11.9844 12.8529 11.3409V1.82955ZM21.9967 14.1854C21.3703 14.1854 20.8121 14.0767 20.322 13.8594C19.8319 13.6378 19.4442 13.3118 19.1586 12.8814C18.8774 12.4467 18.7368 11.9055 18.7368 11.2578C18.7368 10.7124 18.8369 10.2543 19.0372 9.88352C19.2375 9.51278 19.5102 9.21449 19.8554 8.98864C20.2006 8.76278 20.5926 8.59233 21.0315 8.47727C21.4747 8.36222 21.9392 8.28125 22.425 8.23438C22.996 8.17472 23.4562 8.11932 23.8057 8.06818C24.1551 8.01278 24.4086 7.93182 24.5663 7.82528C24.724 7.71875 24.8028 7.56108 24.8028 7.35227V7.31392C24.8028 6.90909 24.675 6.59588 24.4193 6.37429C24.1679 6.1527 23.8099 6.0419 23.3454 6.0419C22.8554 6.0419 22.4655 6.15057 22.1757 6.3679C21.8859 6.58097 21.6942 6.84943 21.6004 7.1733L19.0819 6.96875C19.2098 6.37216 19.4612 5.85653 19.8362 5.42188C20.2112 4.98295 20.6949 4.64631 21.2872 4.41193C21.8838 4.1733 22.5741 4.05398 23.3582 4.05398C23.9037 4.05398 24.4257 4.1179 24.9243 4.24574C25.4271 4.37358 25.8724 4.57173 26.2602 4.8402C26.6523 5.10866 26.9612 5.45384 27.1871 5.87571C27.4129 6.29332 27.5258 6.79403 27.5258 7.37784V14H24.9434V12.6385H24.8667C24.7091 12.9453 24.4981 13.2159 24.2339 13.4503C23.9697 13.6804 23.6523 13.8615 23.2815 13.9936C22.9108 14.1214 22.4825 14.1854 21.9967 14.1854ZM22.7765 12.3061C23.1771 12.3061 23.5308 12.2273 23.8376 12.0696C24.1444 11.9077 24.3852 11.6903 24.5599 11.4176C24.7346 11.1449 24.822 10.8359 24.822 10.4908V9.44886C24.7368 9.50426 24.6196 9.5554 24.4704 9.60227C24.3256 9.64489 24.1615 9.68537 23.9782 9.72372C23.795 9.75781 23.6118 9.78977 23.4285 9.8196C23.2453 9.84517 23.0791 9.86861 22.93 9.88991C22.6104 9.93679 22.3312 10.0114 22.0926 10.1136C21.854 10.2159 21.6686 10.3544 21.5365 10.5291C21.4044 10.6996 21.3383 10.9126 21.3383 11.1683C21.3383 11.5391 21.4726 11.8224 21.741 12.0185C22.0138 12.2102 22.3589 12.3061 22.7765 12.3061ZM29.6384 14V4.18182H32.2783V5.89489H32.3806C32.5596 5.28551 32.86 4.82528 33.2819 4.5142C33.7037 4.19886 34.1895 4.04119 34.7393 4.04119C34.8756 4.04119 35.0226 4.04972 35.1803 4.06676C35.338 4.08381 35.4765 4.10724 35.5958 4.13707V6.55327C35.468 6.51491 35.2911 6.48082 35.0653 6.45099C34.8394 6.42116 34.6327 6.40625 34.4452 6.40625C34.0447 6.40625 33.6867 6.49361 33.3714 6.66832C33.0603 6.83878 32.8131 7.07741 32.6299 7.38423C32.4509 7.69105 32.3614 8.04474 32.3614 8.44531V14H29.6384ZM42.7181 4.18182V6.22727H36.8055V4.18182H42.7181ZM38.1478 1.82955H40.8708V10.983C40.8708 11.2344 40.9092 11.4304 40.9859 11.571C41.0626 11.7074 41.1691 11.8033 41.3055 11.8587C41.4461 11.9141 41.608 11.9418 41.7913 11.9418C41.9191 11.9418 42.047 11.9311 42.1748 11.9098C42.3026 11.8842 42.4007 11.8651 42.4688 11.8523L42.8971 13.8786C42.7607 13.9212 42.569 13.9702 42.3218 14.0256C42.0747 14.0852 41.7742 14.1214 41.4205 14.1342C40.7643 14.1598 40.189 14.0724 39.6947 13.8722C39.2046 13.6719 38.8232 13.3608 38.5505 12.9389C38.2778 12.517 38.1436 11.9844 38.1478 11.3409V1.82955ZM53.1324 14.1918C52.1224 14.1918 51.2531 13.9872 50.5244 13.5781C49.8 13.1648 49.2417 12.581 48.8497 11.8267C48.4577 11.0682 48.2616 10.1712 48.2616 9.13565C48.2616 8.12571 48.4577 7.23935 48.8497 6.47656C49.2417 5.71378 49.7936 5.11932 50.5052 4.69318C51.2211 4.26705 52.0606 4.05398 53.0237 4.05398C53.6714 4.05398 54.2744 4.15838 54.8327 4.36719C55.3952 4.57173 55.8852 4.88068 56.3028 5.29403C56.7247 5.70739 57.0528 6.22727 57.2872 6.85369C57.5216 7.47585 57.6388 8.20455 57.6388 9.03977V9.78764H49.3483V8.10014H55.0756C55.0756 7.7081 54.9903 7.3608 54.8199 7.05824C54.6494 6.75568 54.4129 6.51918 54.1104 6.34872C53.8121 6.17401 53.4648 6.08665 53.0684 6.08665C52.6551 6.08665 52.2886 6.18253 51.969 6.37429C51.6537 6.56179 51.4065 6.81534 51.2275 7.13494C51.0486 7.45028 50.9569 7.80185 50.9527 8.18963V9.79403C50.9527 10.2798 51.0422 10.6996 51.2211 11.0533C51.4044 11.407 51.6622 11.6797 51.9946 11.8714C52.327 12.0632 52.7211 12.1591 53.1771 12.1591C53.4797 12.1591 53.7567 12.1165 54.0081 12.0312C54.2595 11.946 54.4747 11.8182 54.6537 11.6477C54.8327 11.4773 54.969 11.2685 55.0628 11.0213L57.5812 11.1875C57.4534 11.7926 57.1913 12.321 56.795 12.7727C56.403 13.2202 55.8959 13.5696 55.2737 13.821C54.6558 14.0682 53.942 14.1918 53.1324 14.1918ZM61.5155 4.18182L63.3181 7.61435L65.1654 4.18182H67.9587L65.1143 9.09091L68.0354 14H65.2549L63.3181 10.6058L61.4133 14H58.6008L61.5155 9.09091L58.703 4.18182H61.5155ZM69.5759 17.6818V4.18182H72.2606V5.83097H72.382C72.5013 5.56676 72.6739 5.2983 72.8998 5.02557C73.1299 4.74858 73.4282 4.51847 73.7947 4.33523C74.1654 4.14773 74.6256 4.05398 75.1753 4.05398C75.8912 4.05398 76.5518 4.24148 77.1569 4.61648C77.762 4.98722 78.2457 5.54759 78.6079 6.29759C78.9701 7.04332 79.1512 7.97869 79.1512 9.10369C79.1512 10.1989 78.9743 11.1236 78.6207 11.8778C78.2712 12.6278 77.7939 13.1967 77.1888 13.5845C76.588 13.968 75.9147 14.1598 75.1689 14.1598C74.6405 14.1598 74.191 14.0724 73.8202 13.8977C73.4537 13.723 73.1533 13.5036 72.9189 13.2393C72.6846 12.9709 72.5056 12.7003 72.382 12.4276H72.2989V17.6818H69.5759ZM72.2414 9.09091C72.2414 9.67472 72.3224 10.1839 72.4843 10.6186C72.6462 11.0533 72.8806 11.392 73.1874 11.6349C73.4942 11.8736 73.8671 11.9929 74.306 11.9929C74.7492 11.9929 75.1242 11.8714 75.431 11.6286C75.7378 11.3814 75.9701 11.0405 76.1278 10.6058C76.2897 10.1669 76.3707 9.66193 76.3707 9.09091C76.3707 8.52415 76.2918 8.02557 76.1341 7.59517C75.9765 7.16477 75.7442 6.82812 75.4374 6.58523C75.1306 6.34233 74.7535 6.22088 74.306 6.22088C73.8628 6.22088 73.4878 6.33807 73.181 6.57244C72.8785 6.80682 72.6462 7.1392 72.4843 7.5696C72.3224 8 72.2414 8.5071 72.2414 9.09091ZM83.6895 0.909091V14H80.9665V0.909091H83.6895ZM90.3069 14.1918C89.314 14.1918 88.4553 13.9808 87.7309 13.5589C87.0107 13.1328 86.4546 12.5405 86.0626 11.782C85.6705 11.0192 85.4745 10.1349 85.4745 9.12926C85.4745 8.11506 85.6705 7.22869 86.0626 6.47017C86.4546 5.70739 87.0107 5.11506 87.7309 4.69318C88.4553 4.26705 89.314 4.05398 90.3069 4.05398C91.2998 4.05398 92.1563 4.26705 92.8765 4.69318C93.6009 5.11506 94.1592 5.70739 94.5512 6.47017C94.9433 7.22869 95.1393 8.11506 95.1393 9.12926C95.1393 10.1349 94.9433 11.0192 94.5512 11.782C94.1592 12.5405 93.6009 13.1328 92.8765 13.5589C92.1563 13.9808 91.2998 14.1918 90.3069 14.1918ZM90.3197 12.0824C90.7714 12.0824 91.1485 11.9545 91.4511 11.6989C91.7536 11.4389 91.9816 11.0852 92.135 10.6378C92.2927 10.1903 92.3715 9.68111 92.3715 9.11009C92.3715 8.53906 92.2927 8.02983 92.135 7.58239C91.9816 7.13494 91.7536 6.78125 91.4511 6.52131C91.1485 6.26136 90.7714 6.13139 90.3197 6.13139C89.8637 6.13139 89.4802 6.26136 89.1691 6.52131C88.8623 6.78125 88.6301 7.13494 88.4724 7.58239C88.319 8.02983 88.2423 8.53906 88.2423 9.11009C88.2423 9.68111 88.319 10.1903 88.4724 10.6378C88.6301 11.0852 88.8623 11.4389 89.1691 11.6989C89.4802 11.9545 89.8637 12.0824 90.3197 12.0824ZM96.9099 14V4.18182H99.5498V5.89489H99.6521C99.8311 5.28551 100.131 4.82528 100.553 4.5142C100.975 4.19886 101.461 4.04119 102.011 4.04119C102.147 4.04119 102.294 4.04972 102.452 4.06676C102.609 4.08381 102.748 4.10724 102.867 4.13707V6.55327C102.739 6.51491 102.563 6.48082 102.337 6.45099C102.111 6.42116 101.904 6.40625 101.717 6.40625C101.316 6.40625 100.958 6.49361 100.643 6.66832C100.332 6.83878 100.085 7.07741 99.9014 7.38423C99.7224 7.69105 99.6329 8.04474 99.6329 8.44531V14H96.9099ZM104.275 14V4.18182H106.998V14H104.275ZM105.643 2.91619C105.238 2.91619 104.891 2.78196 104.601 2.51349C104.316 2.24077 104.173 1.91477 104.173 1.53551C104.173 1.16051 104.316 0.838778 104.601 0.570312C104.891 0.297585 105.238 0.161221 105.643 0.161221C106.048 0.161221 106.393 0.297585 106.679 0.570312C106.968 0.838778 107.113 1.16051 107.113 1.53551C107.113 1.91477 106.968 2.24077 106.679 2.51349C106.393 2.78196 106.048 2.91619 105.643 2.91619ZM111.902 8.32386V14H109.179V4.18182H111.775V5.91406H111.89C112.107 5.34304 112.471 4.89133 112.983 4.55895C113.494 4.2223 114.114 4.05398 114.843 4.05398C115.525 4.05398 116.119 4.20312 116.626 4.50142C117.133 4.79972 117.527 5.22585 117.809 5.77983C118.09 6.32955 118.231 6.9858 118.231 7.74858V14H115.508V8.23438C115.512 7.63352 115.358 7.16477 115.047 6.82812C114.736 6.48722 114.308 6.31676 113.763 6.31676C113.396 6.31676 113.072 6.3956 112.791 6.55327C112.514 6.71094 112.297 6.94105 112.139 7.24361C111.986 7.5419 111.907 7.90199 111.902 8.32386ZM124.8 17.8864C123.918 17.8864 123.161 17.7649 122.531 17.522C121.904 17.2834 121.406 16.9574 121.035 16.544C120.664 16.1307 120.424 15.6662 120.313 15.1506L122.831 14.8118C122.908 15.0078 123.029 15.1911 123.196 15.3615C123.362 15.532 123.581 15.6683 123.854 15.7706C124.131 15.8771 124.468 15.9304 124.864 15.9304C125.456 15.9304 125.944 15.7855 126.328 15.4957C126.715 15.2102 126.909 14.7308 126.909 14.0575V12.2614H126.794C126.675 12.5341 126.496 12.7919 126.257 13.0348C126.019 13.2777 125.712 13.4759 125.337 13.6293C124.962 13.7827 124.514 13.8594 123.995 13.8594C123.257 13.8594 122.586 13.6889 121.981 13.348C121.38 13.0028 120.901 12.4766 120.543 11.7692C120.189 11.0575 120.012 10.1584 120.012 9.07173C120.012 7.95952 120.193 7.03054 120.556 6.2848C120.918 5.53906 121.399 4.98082 122 4.61009C122.605 4.23935 123.268 4.05398 123.988 4.05398C124.538 4.05398 124.998 4.14773 125.369 4.33523C125.74 4.51847 126.038 4.74858 126.264 5.02557C126.494 5.2983 126.671 5.56676 126.794 5.83097H126.897V4.18182H129.6V14.0959C129.6 14.9311 129.396 15.63 128.987 16.1925C128.578 16.755 128.011 17.1768 127.286 17.4581C126.566 17.7436 125.737 17.8864 124.8 17.8864ZM124.858 11.8139C125.296 11.8139 125.667 11.7053 125.97 11.4879C126.277 11.2663 126.511 10.951 126.673 10.5419C126.839 10.1286 126.922 9.63423 126.922 9.05895C126.922 8.48366 126.841 7.98509 126.679 7.56321C126.517 7.13707 126.283 6.80682 125.976 6.57244C125.669 6.33807 125.296 6.22088 124.858 6.22088C124.41 6.22088 124.033 6.34233 123.726 6.58523C123.419 6.82386 123.187 7.15625 123.029 7.58239C122.872 8.00852 122.793 8.50071 122.793 9.05895C122.793 9.62571 122.872 10.1158 123.029 10.5291C123.191 10.9382 123.424 11.2557 123.726 11.4815C124.033 11.7031 124.41 11.8139 124.858 11.8139Z" fill="#2E2E2F"/>
</svg>
